# xmcd
#
# Track frame offsets:
#	150
#	20735
#	40758
#	55300
#	72725
#	86488
#	101383
#	116513
#	129880
#	142130
#	156393
#	166825
#	187020
#	195063
#	203903
#	216648
#	231683
#	243188
#	258400
#	273525
#
# Disc length: 3826 seconds
# Revision: 2
# Processed by: cddbd v1.5.2PL0 Copyright (c) Steve Scherf et al.
# Submitted via: dBpowerAMP V12.0
#
DISCID=2e0ef014
DTITLE=Ernest Tubb - Live 1965
DYEAR=1965
DGENRE=Country
TTITLE0=Intro - Drivin Nails In My Coffin
TTITLE1=I Love You Because
TTITLE2=There's A Little Bit Of Everything In Texas
TTITLE3=Blue Eyed Elaine
TTITLE4=Slipping Around
TTITLE5=Mississippi Gal
TTITLE6=I'll Take A Back Seat For You
TTITLE7=Warm Red Wine
TTITLE8=Thanks A Lot
TTITLE9=Pass The Booze
TTITLE10=You Don't Have To Be A Baby To Cry
TTITLE11=Lonesome 7 7203
TTITLE12=Panhandlle Rag
TTITLE13=Rhodesbud Boogie
TTITLE14=Do What You Do Do Well
TTITLE15=Soldier's Last Letter
TTITLE16=A Memory That's All You'll Ever Be To Me
TTITLE17=Driftwood On The River
TTITLE18=Try Me One More Time
TTITLE19=Walking The Floor Over You
EXTD=
EXTT0=
EXTT1=
EXTT2=
EXTT3=
EXTT4=
EXTT5=
EXTT6=
EXTT7=
EXTT8=
EXTT9=
EXTT10=
EXTT11=
EXTT12=
EXTT13=
EXTT14=
EXTT15=
EXTT16=
EXTT17=
EXTT18=
EXTT19=
PLAYORDER=
